<?xml version="1.0" encoding="utf-8"?>
<!-- Generator: Adobe Illustrator 27.2.0, SVG Export Plug-In . SVG Version: 6.00 Build 0)  -->
<svg version="1.1" id="Layer_1" xmlns="http://www.w3.org/2000/svg" xmlns:xlink="http://www.w3.org/1999/xlink" x="0px" y="0px"
	 viewBox="0 0 100 100" style="enable-background:new 0 0 100 100;" xml:space="preserve">
<g>
	<path d="M94.27,79.43l-8.22-4.8c5.12-7.42,7.83-16.1,7.83-25.16c0-24.46-19.9-44.35-44.35-44.35S5.17,25.02,5.17,49.48
		c0,24.46,19.9,44.35,44.35,44.35c7.73,0,15.3-2.03,21.97-5.84l0.68,5.87v0c0.06,0.48,0.39,0.86,0.86,0.98
		c0.09,0.02,0.18,0.03,0.28,0.03c0.37,0,0.72-0.18,0.94-0.5l7.08-10.51c0.02-0.03,0.05-0.05,0.09-0.06l12.47-2.26
		c0.47-0.09,0.84-0.45,0.92-0.92C94.9,80.14,94.68,79.68,94.27,79.43z M79.63,70.89h7.59c-0.63,1.1-1.31,2.19-2.04,3.24L79.63,70.89
		z M6.18,49.98h1.99v-1H6.18c0.08-7.19,1.92-13.96,5.11-19.91h17.46c-3.1,5.88-5.36,12.61-5.64,19.91h-0.36v1h0.32
		c-0.09,6.79,1.55,13.44,4.89,19.91H11.29C8.1,63.94,6.26,57.17,6.18,49.98z M24.07,49.98h3.54v-1h-3.5
		c0.29-7.31,2.61-14.05,5.76-19.91h19.15v40.82H29.1C25.68,63.41,23.98,56.76,24.07,49.98z M50.02,6.5
		C52.5,8.47,62,16.45,68.51,28.07H50.02V6.5z M49.02,28.07h-18.6c6.58-11.71,16.22-19.73,18.6-21.61V28.07z M49.02,70.89v21.59
		c-8.75-6.93-15.21-14.15-19.36-21.59H49.02z M50.02,70.89h19.33c-4.14,7.41-10.64,14.65-19.33,21.55V70.89z M69.56,65.74
		c-0.36,0.24-0.56,0.65-0.51,1.08l0.35,3.06H50.02V29.07h19.04c3.14,5.86,5.47,12.59,5.78,19.91h-3.48v1h3.5
		c0.09,5.17-0.86,10.62-3.24,16.24l-0.88-0.51C70.39,65.49,69.93,65.5,69.56,65.74z M75.88,49.98h0.35v-1h-0.38
		c-0.3-7.3-2.57-14.03-5.66-19.91h17.56c3.19,5.95,5.02,12.72,5.11,19.91h-2.04v1h2.05c-0.08,7.02-1.82,13.81-5.09,19.91h-9.86
		l-5.41-3.16C74.98,60.92,75.96,55.3,75.88,49.98z M87.19,28.07H69.65C63.45,16.78,54.42,8.8,51.2,6.17
		C66.61,6.76,79.98,15.43,87.19,28.07z M47.78,6.17c-3.23,2.64-12.3,10.63-18.5,21.9H11.85C19.05,15.45,32.39,6.78,47.78,6.17z
		 M11.85,70.89h16.67c4.11,7.56,10.56,14.88,19.3,21.9C32.41,92.19,19.05,83.51,11.85,70.89z M51.2,92.77
		c8.15-6.55,14.36-13.42,18.48-20.46l1.68,14.6C65.25,90.5,58.31,92.5,51.2,92.77z M93.72,80.56l-12.47,2.26
		c-0.3,0.05-0.57,0.23-0.74,0.48l-7.08,10.51c-0.04,0.07-0.11,0.07-0.15,0.06c-0.04-0.01-0.1-0.04-0.11-0.12l-3.12-27.04
		c-0.01-0.07,0.03-0.11,0.06-0.13c0.03-0.02,0.08-0.04,0.15,0L93.76,80.3c0.07,0.04,0.07,0.1,0.07,0.14
		C93.82,80.49,93.8,80.54,93.72,80.56z"/>
	<rect x="13.03" y="48.98" width="4.86" height="1"/>
	<rect x="32.48" y="48.98" width="4.86" height="1"/>
	<rect x="61.65" y="48.98" width="4.86" height="1"/>
	<rect x="81.09" y="48.98" width="4.86" height="1"/>
	<rect x="42.2" y="48.98" width="4.86" height="1"/>
	<rect x="51.92" y="48.98" width="4.86" height="1"/>
</g>
</svg>
